<svg xmlns="http://www.w3.org/2000/svg" id="whistle-for-help" viewBox="0 0 100 100">
  <path d="M95,33.5H32.5a29,29,0,1,0,29,29,27.86823,27.86823,0,0,0-.21-3.41l34.04-7.67a1.49817,1.49817,0,0,0,1.17-1.46V35A1.498,1.498,0,0,0,95,33.5ZM93.5,48.76,59.38,56.44h-.01a.35571.35571,0,0,0-.11.03.47969.47969,0,0,0-.2.07,1.19048,1.19048,0,0,0-.2.08,1.65724,1.65724,0,0,0-.21.16,1.53585,1.53585,0,0,0-.18.18c-.04.05-.08.1-.12.16a1.45213,1.45213,0,0,0-.21,1.05,26.35655,26.35655,0,0,1,.36,4.33,26,26,0,1,1-25.94-26H93.5Z"></path>
  <path d="M32.5 77.30664A14.80664 14.80664 0 1 1 47.30664 62.5 14.82323 14.82323 0 0 1 32.5 77.30664Zm0-26.61328A11.80664 11.80664 0 1 0 44.30664 62.5 11.82 11.82 0 0 0 32.5 50.69336ZM56 36.5v4H44v-4H41V42a1.498 1.498 0 0 0 1.5 1.5h15A1.498 1.498 0 0 0 59 42V36.5ZM50 23.5a1.49968 1.49968 0 0 1-1.42285-1.02588l-4-12A1.49988 1.49988 0 0 1 46 8.5h8a1.49988 1.49988 0 0 1 1.42285 1.97412l-4 12A1.49968 1.49968 0 0 1 50 23.5Zm-1.919-12L50 17.25684 51.919 11.5ZM59.19287 27.30762a1.50036 1.50036 0 0 1-1.34228-2.1709l5.65673-11.31348a1.50026 1.50026 0 0 1 2.40235-.38965l2.82861 2.82813h0l2.82813 2.82861a1.50026 1.50026 0 0 1-.38965 2.40235L59.86328 27.14941A1.5 1.5 0 0 1 59.19287 27.30762Zm6.06738-10.28125-2.71386 5.42724 5.42724-2.71386ZM40.80713 27.30762a1.5 1.5 0 0 1-.67041-.15821l-11.314-5.65673a1.50025 1.50025 0 0 1-.38964-2.40235l2.82861-2.82861h0l2.82861-2.82813a1.50026 1.50026 0 0 1 2.40235.38965l5.65673 11.31348a1.50036 1.50036 0 0 1-1.34228 2.1709Zm-8.78125-7.56787 5.42773 2.71386-2.71386-5.42724Z"></path>
</svg>
